<?xml version="1.0" encoding="UTF-8" standalone="no"?>
<svg
   xmlns:dc="http://purl.org/dc/elements/1.1/"
   xmlns:cc="http://creativecommons.org/ns#"
   xmlns:rdf="http://www.w3.org/1999/02/22-rdf-syntax-ns#"
   xmlns:svg="http://www.w3.org/2000/svg"
   xmlns="http://www.w3.org/2000/svg"
   viewBox="0 0 238.10667 238.10667"
   height="238.10667"
   width="238.10667"
   xml:space="preserve"
   id="svg2"
   version="1.1"><metadata
     id="metadata8"><rdf:RDF><cc:Work
         rdf:about=""><dc:format>image/svg+xml</dc:format><dc:type
           rdf:resource="http://purl.org/dc/dcmitype/StillImage" /></cc:Work></rdf:RDF></metadata><defs
     id="defs6" /><g
     transform="matrix(1.3333333,0,0,-1.3333333,0,238.10667)"
     id="g10"><g
       transform="scale(0.1)"
       id="g12"><path
         id="path14"
         style="fill:#fccf00;fill-opacity:1;fill-rule:nonzero;stroke:none"
         d="M 344.238,594.059 H 146.582 c -33,0 -60,27 -60,60 v 215.8 c 0,33 27,60 60,60 h 197.656 c 33,0 60,-27 60,-60 v -215.8 c 0,-33 -27,-60 -60,-60" /><path
         id="path16"
         style="fill:#fccf00;fill-opacity:1;fill-rule:nonzero;stroke:none"
         d="M 1668.49,594.059 H 1476.4 c -33,0 -60,27 -60,60 v 215.8 c 0,33 27,60 60,60 h 192.09 c 33,0 60,-27 60,-60 v -215.8 c 0,-33 -27,-60 -60,-60" /><path
         id="path18"
         style="fill:#fccf00;fill-opacity:1;fill-rule:nonzero;stroke:none"
         d="M 1177.37,341.289 H 638.379 c -220,0 -400,180 -400,400 v 41.652 c 0,219.999 180,399.999 400,399.999 h 538.991 c 220,0 400,-180 400,-399.999 v -41.652 c 0,-220 -180,-400 -400,-400" /><path
         id="path20"
         style="fill:#ffffff;fill-opacity:1;fill-rule:nonzero;stroke:none"
         d="m 827.961,763.43 c 0,-131.641 -106.715,-238.36 -238.356,-238.36 -131.64,0 -238.355,106.719 -238.355,238.36 0,131.636 106.715,238.36 238.355,238.36 131.641,0 238.356,-106.724 238.356,-238.36" /><path
         id="path22"
         style="fill:#ffffff;fill-opacity:1;fill-rule:nonzero;stroke:none"
         d="m 1478.33,763.43 c 0,-131.641 -106.72,-238.36 -238.36,-238.36 -131.64,0 -238.35,106.719 -238.35,238.36 0,131.636 106.71,238.36 238.35,238.36 131.64,0 238.36,-106.724 238.36,-238.36" /><path
         id="path24"
         style="fill:#444344;fill-opacity:1;fill-rule:nonzero;stroke:none"
         d="m 987.609,1426.57 c 15.071,65 36.971,128.42 65.231,188.86 1.26,2.69 2.65,5.52 5.18,7.08 5.88,3.63 25.2,0.03 45.43,-5.03 37.54,-9.37 54.18,-12.95 79.74,-42 -61.26,-61.33 -134.33,-87.58 -195.581,-148.91" /><path
         id="path26"
         style="fill:#444344;fill-opacity:1;fill-rule:nonzero;stroke:none"
         d="m 1023.51,1385.06 c 57.08,32.49 115.84,62.01 175.97,88.42 3.14,1.38 6.94,2.71 9.83,0.85 2.85,-1.84 3.24,-5.78 3.33,-9.18 0.54,-20.08 3.5,-45.38 -0.28,-71.09 -0.67,-4.57 -37.83,-10.74 -62.37,-14.84 -38.59,-6.45 -69.56,-5.53 -126.48,5.84" /><path
         id="path28"
         style="fill:#444344;fill-opacity:1;fill-rule:nonzero;stroke:none"
         d="m 929.109,1522.44 c -17.093,35.66 -29.093,73.76 -35.527,112.78 -0.5,3.03 -0.844,6.51 1.184,8.81 1.879,2.13 5.054,2.39 7.894,2.46 19.262,0.49 38.57,-0.79 57.602,-3.8 4.273,-0.68 9.152,-1.89 11.039,-5.79 1.66,-3.43 0.25,-7.49 -1.215,-11.01 -18.68,-44.81 -38.695,-54.96 -40.977,-103.45" /><path
         id="path30"
         style="fill:#444344;fill-opacity:1;fill-rule:nonzero;stroke:none"
         d="M 498.152,851.828 C 475.285,822.797 478.543,776.531 505.258,751 c 26.711,-25.539 73.078,-26.711 101.047,-2.559 16.902,14.59 26.554,36.219 30.476,58.2 1.86,10.414 2.504,21.379 -1.008,31.355 -6.558,18.633 -26.582,29.82 -46.23,31.836 -19.648,2.012 -56.637,0.188 -91.391,-18.004" /><path
         id="path32"
         style="fill:#444344;fill-opacity:1;fill-rule:nonzero;stroke:none"
         d="m 474.461,858.234 c -28.75,-40.984 -17.938,-99.254 23.887,-127.004 40.32,-26.761 100.965,-23.16 134.824,12.661 32.641,34.539 45.437,99.281 0.527,128.648 -44.258,28.941 -108.304,14.051 -152.25,-7.18 -10.683,-5.164 -9.488,-17.386 -1.851,-24.39 9.289,-8.512 24.73,-7.758 35.257,-2.672 21.333,10.305 59.079,23.199 82.508,11.551 30.762,-15.293 11.977,-66.438 -5.922,-85.289 -19.863,-20.899 -53,-21.649 -71.226,1.812 -18.375,23.637 -14.68,55.801 1.629,79.047 13.695,19.527 -34.719,30.871 -47.383,12.816 v 0" /><path
         id="path34"
         style="fill:#444344;fill-opacity:1;fill-rule:nonzero;stroke:none"
         d="m 1142.27,861.672 c -38.47,-27.813 -36.14,-95.551 4.15,-120.641 40.3,-25.101 102.12,2.68 110.12,49.465 2.39,14.02 0.01,29.844 -10.29,39.652 -22.49,21.43 -73.79,38.293 -103.98,31.524" /><path
         id="path36"
         style="fill:#444344;fill-opacity:1;fill-rule:nonzero;stroke:none"
         d="m 1128.22,875.195 c -35.55,-28.34 -48.77,-79.89 -26.65,-120.894 23.14,-42.871 75.46,-51.942 117.81,-33.68 40.94,17.66 80.93,70.234 53.82,115.18 -23.72,39.308 -91.74,52.484 -133.05,45.254 -28.44,-4.977 -27.82,-44.379 4.24,-38.77 24.27,4.246 60.17,-7.445 78.45,-23.773 23.31,-20.832 4.77,-54.762 -20.23,-63.762 -53.58,-19.27 -86.74,61.152 -46.29,93.395 25.58,20.39 -5.65,44.945 -28.1,27.05 v 0" /><path
         id="path38"
         style="fill:#444344;fill-opacity:1;fill-rule:nonzero;stroke:none"
         d="m 894.75,543.922 c -0.371,-38.621 8.41,-72.25 41.652,-95.32 13.133,-9.114 32.547,-18.743 48.067,-9.852 18.531,10.621 21.871,42.422 22.501,60.93 1.39,40.898 -13.4,84.648 -50.103,106.441 -44.679,26.52 -68,-22.019 -62.117,-62.199 1.48,-10.102 11.371,-19.063 19.391,-24.57 1.789,-1.231 21.156,-12.532 19.871,-3.762 -3.34,22.82 0.863,44.281 17.379,60.859 2.89,11.082 5.285,12.66 7.183,4.762 2.055,-4.43 3.664,-9.031 4.828,-13.789 3.598,-12.863 4.758,-26.121 4.305,-39.41 -0.48,-14.102 -3.488,-55.543 -24.488,-57.551 -10.903,-1.039 -9.301,35.18 -9.207,45.129 0.133,13.851 -39.172,37.558 -39.262,28.332 v 0" /><path
         id="path40"
         style="fill:#fccf00;fill-opacity:1;fill-rule:nonzero;stroke:none"
         d="m 746.664,1170.06 c 14.422,41.29 0.524,90.5 -39.863,111.74 -39.621,20.84 -90.488,16.22 -99.098,71.04 -6.715,42.76 20,80.1 56.293,99.4 37.164,19.77 97.594,28.89 136.692,10.98 44.488,-20.37 58.32,-74.96 38.054,-117.25 -24.347,-50.81 -60.933,-91.76 -24.558,-146.86 3.347,11.27 6.695,22.54 10.043,33.82 -36.575,-10.24 -73.145,-20.47 -109.719,-30.71 -30.731,-8.59 -8.699,-51.09 18.918,-43.36 36.574,10.23 73.148,20.47 109.722,30.7 15.918,4.46 18.036,21.71 10.043,33.82 -25.804,39.09 34.879,95.58 42.426,134.01 6.317,32.18 -1.051,66.14 -17.887,93.98 -40.57,67.07 -126.863,75.88 -196.906,57.58 -67.109,-17.55 -124.519,-69.74 -122.75,-143.06 0.735,-30.51 11.949,-60.56 34.364,-81.8 32.433,-30.72 129.757,-33.17 108.832,-93.07 -9.528,-27.27 35.863,-48.25 45.394,-20.96 v 0" /><path
         id="path42"
         style="fill:#fccf00;fill-opacity:1;fill-rule:nonzero;stroke:none"
         d="m 679.047,1415.81 c -19.137,-18.43 -6.551,-48.07 10.777,-63.43 25.789,-22.88 61.336,-10.91 91.512,-5.65 -9.992,11.56 -19.984,23.11 -29.977,34.66 -4.129,-45.54 8.262,-87.02 33.067,-125.01 16.668,-25.52 39.019,-8.36 22.586,16.8 -16.039,24.57 -21.098,53.2 -18.481,82.05 1.258,13.86 -13.886,37.46 -29.972,34.65 -9.914,-1.73 -19.825,-3.5 -29.746,-5.19 -3.95,-0.71 -7.903,-1.36 -11.868,-1.96 -7.074,1.84 -9.757,-0.51 -8.054,-7.03 14.343,13.81 -16.512,52.95 -29.844,40.11 v 0" /></g></g></svg>